<svg xmlns="http://www.w3.org/2000/svg" viewBox="0 0 24 40"><path fill="#fcfcfb" stroke="#fcfcfb" d="M7.65 1.422C.719 4.486-1.859 22.453 3.526 30.166 6.559 34.51 16.1 40.559 18.48 39.646c1.756-.674 6.559-17.583 6.433-22.646-.094-3.75-.246-4.083-.913-2-.547 1.707-.832 1.938-.9.728-.055-.975-1.91-3.736-4.122-6.136l-4.023-4.364 2.523-.633c2.817-.707 3.371-3.055.94-3.988-2.486-.954-7.649-.563-10.768.815M.3 19c0 3.025.187 4.263.416 2.75.229-1.512.229-3.987 0-5.5C.487 14.738.3 15.975.3 19" fill-rule="evenodd"/><path fill="#f3cc14" stroke="#f3cc14" d="M7.687 1.755C3.776 4.181-.279 15.703.619 21.839c.876 5.988 5.735 12.037 12.379 15.411C19.267 40.434 19 40.366 19 38.769c0-.677.865-3.489 1.923-6.25 2.437-6.364 4.604-16.326 3.738-17.191-.364-.364-.708.651-.764 2.255-.096 2.692-.183 2.618-1.13-.96-.593-2.242-2.625-5.429-4.82-7.559l-3.795-3.683 2.924-1.104c3.492-1.318 3.769-2.817.674-3.647-3.894-1.043-7.155-.679-10.063 1.125M.195 18.5c.02 1.65.244 2.204.498 1.231.254-.973.237-2.323-.037-3-.274-.677-.481.119-.461 1.769" fill-rule="evenodd"/><path fill="#bcc4bc" stroke="#bcc4bc" d="M7.581 2.513c-3.684 3.414-3.2 7.171 1.317 10.205C10.767 13.973 12.679 15 13.148 15c1.606 0 .853-5.729-1.076-8.181l-1.928-2.451 2.813.412c4.357.64 8-1.607 5.532-3.412C15.498-.819 10.624-.308 7.581 2.513" fill-rule="evenodd"/><path fill="#5e6a4f" stroke="#5e6a4f" d="M13 1c2.369.759 2.329.806-.75.9C9.183 1.994 5 4.889 5 6.918 5 9.743 9.478 14 12.45 14c1.394 0 .339-5.999-1.456-8.281l-2.006-2.55 2.798 1.056c2.172.82 3.46.707 5.756-.504L20.5 2.16l-2.815-1.08c-1.548-.594-3.798-1.035-5-.98-2.027.092-2.005.157.315.9M8 6.223c0 .855.922 2.618 2.049 3.916l2.05 2.361L10.422 9C8.34 4.654 8 4.264 8 6.223" fill-rule="evenodd"/></svg>